#!OML:ASF F:\VICON\USERDATA\INSTALL\rory3\rory3.ASF
:FULLY-SPECIFIED
:DEGREES
135
root 9.04086 17.2614 -5.5838 202.665 87.253 206.527
lowerback 11.6186 0.204886 -4.6163
upperback 0.936274 -0.233951 0.841451
thorax -5.5159 0.0226665 3.52915
lowerneck -8.52845 -11.5411 -14.8814
upperneck 31.8981 -16.9936 13.1535
head 15.1026 -7.32841 5.21747
rclavicle -2.19906e-015 5.76476e-015
rhumerus -38.1615 -28.5009 -71.1424
rradius 26.3041
rwrist 11.9359
rhand -26.8251 5.91221
rfingers 7.12502
rthumb -0.25121 -24.0674
lclavicle -2.19906e-015 5.76476e-015
lhumerus -33.5819 11.9094 72.7233
lradius 28.9543
lwrist -4.79769
lhand -20.7683 28.111
lfingers 7.12502
lthumb 5.59809 58.0171
rfemur -3.57016 3.34559 3.61004
rtibia 26.9024
rfoot -12.542 -1.21837
rtoes -22.0026
lfemur -0.0350969 -11.4247 -4.56854
ltibia 24.9385
lfoot -15.156 -0.0037384
ltoes -29.1406
136
root 9.05216 17.2588 -5.42959 215.338 87.0532 219.427
lowerback 11.8672 0.251376 -4.1343
upperback 0.989441 -0.109043 0.974289
thorax -5.61075 0.0766037 3.37768
lowerneck -8.55281 -11.5595 -14.7738
upperneck 31.989 -17.0245 13.0815
head 15.1353 -7.33258 5.16568
rclavicle -1.51573e-015 -8.15017e-015
rhumerus -37.7381 -27.9383 -71.8105
rradius 26.5298
rwrist 11.2073
rhand -27.1713 5.74635
rfingers 7.12502
rthumb -0.585499 -24.2326
lclavicle -1.51573e-015 -8.15017e-015
lhumerus -33.5777 12.6806 72.2303
lradius 28.794
lwrist -5.46569
lhand -20.4933 27.9609
lfingers 7.12502
lthumb 5.8636 57.8598
rfemur -3.47413 2.80394 4.9475
rtibia 27.1723
rfoot -13.2699 -1.37307
rtoes -21.6142
lfemur 0.290193 -11.3579 -3.2963
ltibia 24.791
lfoot -14.5443 -0.209785
ltoes -29.6934
137
root 9.05982 17.2653 -5.27768 221.122 87.013 225.209
lowerback 11.9683 0.295809 -4.02121
upperback 0.947575 -0.0401656 0.979306
thorax -5.71771 0.110737 3.30848
lowerneck -8.55164 -11.5125 -14.6829
upperneck 32.0695 -16.9793 13.0862
head 15.1539 -7.29867 5.16736
rclavicle 4.05024e-015 5.96354e-015
rhumerus -37.4161 -27.3288 -72.508
rradius 26.8557
rwrist 10.5566
rhand -27.5018 5.73766
rfingers 7.12502
rthumb -0.904751 -24.2402
lclavicle 4.05024e-015 5.96354e-015
lhumerus -33.6523 13.3032 71.7997
lradius 28.7037
lwrist -5.68996
lhand -20.6479 28.0042
lfingers 7.12502
lthumb 5.71432 57.9071
rfemur -3.62556 2.36452 5.81564
rtibia 27.4338
rfoot -13.8382 -1.56751
rtoes -20.3353
lfemur 0.418373 -11.5587 -2.5243
ltibia 24.5943
lfoot -13.6875 -0.136148
ltoes -30.1493
138
root 9.06411 17.2791 -5.13276 228.518 86.8521 232.681
lowerback 12.221 0.319738 -3.62459
upperback 0.899201 0.0341974 0.967726
thorax -5.91618 0.142265 3.06065
lowerneck -8.51698 -11.4407 -14.6888
upperneck 32.1391 -16.924 13.2297
head 15.1883 -7.25774 5.24947
rclavicle -2.70844e-015 -1.98785e-015
rhumerus -37.0722 -26.6036 -73.2264
rradius 27.0903
rwrist 10.0616
rhand -27.3697 5.80755
rfingers 7.12502
rthumb -0.777151 -24.1708
lclavicle -2.70844e-015 -1.98785e-015
lhumerus -33.796 13.9339 71.3293
lradius 28.722
lwrist -5.57287
lhand -20.7062 28.2779
lfingers 7.12502
lthumb 5.65805 58.1824
rfemur -3.68171 2.21052 6.81879
rtibia 27.6347
rfoot -14.3083 -1.53677
rtoes -17.9592
lfemur 0.595891 -11.6645 -1.61785
ltibia 24.4072
lfoot -12.765 -0.161047
ltoes -30.3506
139
root 9.0683 17.3012 -4.98783 235.815 86.755 240.073
lowerback 12.4281 0.371634 -3.35846
upperback 0.89805 0.135113 0.990309
thorax -6.0405 0.188075 2.91725
lowerneck -8.48854 -11.3924 -14.7278
upperneck 32.1842 -16.8703 13.2955
head 15.2062 -7.23223 5.30025
rclavicle -3.926e-015 3.18055e-015
rhumerus -36.6511 -25.9402 -73.8526
rradius 27.2403
rwrist 9.76277
rhand -26.8837 5.82212
rfingers 7.12502
rthumb -0.307783 -24.1574
lclavicle -3.926e-015 3.18055e-015
lhumerus -33.9672 14.9367 70.8028
lradius 28.7574
lwrist -5.81054
lhand -20.6879 28.2835
lfingers 7.12502
lthumb 5.67564 58.1875
rfemur -3.79338 2.28149 7.7211
rtibia 27.8617
rfoot -14.5989 -1.16403
rtoes -15.8504
lfemur 0.84866 -11.6244 -0.822882
ltibia 24.1911
lfoot -11.7925 -0.107408
ltoes -31.1854
140
root 9.07192 17.3279 -4.8474 243.419 86.6013 247.738
lowerback 12.5127 0.413697 -3.07758
upperback 0.953427 0.233296 1.04121
thorax -6.03544 0.229432 2.79466
lowerneck -8.56944 -11.3461 -14.584
upperneck 32.2599 -16.8042 13.2213
head 15.2203 -7.18967 5.25813
rclavicle -5.59082e-015 -1.98785e-015
rhumerus -36.2181 -25.5025 -74.3908
rradius 27.4458
rwrist 9.84581
rhand -26.6979 6.13515
rfingers 7.12502
rthumb -0.128338 -23.8446
lclavicle -5.59082e-015 -1.98785e-015
lhumerus -34.0918 16.0626 70.2772
lradius 28.7726
lwrist -6.1908
lhand -20.5626 28.2041
lfingers 7.12502
lthumb 5.79669 58.1048
rfemur -3.99628 2.49918 8.63094
rtibia 28.1129
rfoot -14.7142 -0.966786
rtoes -15.6945
lfemur 1.09927 -11.704 -0.0657264
ltibia 23.9925
lfoot -10.6621 0.0786659
ltoes -31.0244
